Coordinates
version=1
nRows=24
nColumns=38
inDegrees=no

Units are S.I. units (second, meters, Newtons, ...)
If the header above contains a line with 'inDegrees', this indicates whether rotational values are in degrees (yes) or radians (no).

endheader
time	pelvis_tilt	pelvis_list	pelvis_rotation	pelvis_tx	pelvis_ty	pelvis_tz	hip_flexion_r	hip_adduction_r	hip_rotation_r	knee_angle_r	ankle_angle_r	subtalar_angle_r	mtp_angle_r	hip_flexion_l	hip_adduction_l	hip_rotation_l	knee_angle_l	ankle_angle_l	subtalar_angle_l	mtp_angle_l	lumbar_extension	lumbar_bending	lumbar_rotation	arm_flex_r	arm_add_r	arm_rot_r	elbow_flex_r	pro_sup_r	wrist_flex_r	wrist_dev_r	arm_flex_l	arm_add_l	arm_rot_l	elbow_flex_l	pro_sup_l	wrist_flex_l	wrist_dev_l
65	2.74958	1.38658	-1.20049	0.659683	0.223889	0.625329	0.936564	-0.469843	-0.142855	1.93813	0.522427	0	0	1.03077	-0.518125	-0.0136614	1.95269	0.480407	0	0	-0.935925	0.029368	0.0187598	0.937054	-0.596047	0.364473	0.804855	0.589416	0	0	0.976111	-0.457626	0.253416	0.912863	0.857244	0	0
65.01	2.77409	1.38033	-1.22511	0.659669	0.224019	0.619059	0.949082	-0.481136	-0.130891	1.96166	0.516225	0	0	1.03981	-0.524303	-0.00616212	1.97492	0.48143	0	0	-0.944314	0.0301626	0.0164318	0.953153	-0.597454	0.381163	0.813058	0.568849	0	0	0.991659	-0.452859	0.092723	0.899491	1.5708	0	0
65.02	2.79474	1.37226	-1.24567	0.659523	0.224065	0.612896	0.95914	-0.491272	-0.119208	1.98485	0.513394	0	0	1.04807	-0.530004	0.00353392	1.99713	0.482664	0	0	-0.954134	0.02839	0.017436	0.962661	-0.601182	0.386921	0.822781	0.562408	0	0	0.982004	-0.459512	0.254381	0.951899	0.835243	0	0
65.03	2.81016	1.36486	-1.26058	0.659375	0.224205	0.606691	0.969382	-0.500709	-0.107766	2.00794	0.513336	0	0	1.05818	-0.535009	0.0148443	2.01919	0.483174	0	0	-0.962317	0.0291401	0.0178067	0.973555	-0.603296	0.394045	0.832266	0.563546	0	0	0.983641	-0.459598	0.252652	0.97102	0.837602	0	0
65.04	2.82258	1.35906	-1.27334	0.659442	0.224477	0.600267	0.982024	-0.508464	-0.095026	2.0312	0.51435	0	0	1.07052	-0.540648	0.0265864	2.0415	0.483418	0	0	-0.968368	0.0307153	0.0170912	0.986026	-0.604035	0.404181	0.843332	0.557539	0	0	0.994338	-0.452176	0.0876122	0.961826	1.5708	0	0
65.05	2.83268	1.35166	-1.28449	0.659598	0.224685	0.593932	0.992747	-0.514355	-0.0825881	2.05366	0.515289	0	0	1.08196	-0.547235	0.0392157	2.06372	0.483679	0	0	-0.975697	0.0285322	0.0199238	0.991312	-0.608149	0.403523	0.857647	0.551827	0	0	0.982165	-0.457723	0.242672	1.01867	0.820582	0	0
65.06	2.84429	1.34394	-1.29632	0.65965	0.224986	0.587774	1.00234	-0.521675	-0.0712782	2.07541	0.517521	0	0	1.09271	-0.552563	0.0514628	2.08531	0.484077	0	0	-0.984021	0.0273769	0.0246096	1.01851	-0.587504	0.191208	0.761201	1.47233	0	0	0.984254	-0.452518	0.238814	1.04136	0.817766	0	0
65.07	2.86549	1.33338	-1.31748	0.659708	0.225127	0.582319	1.00711	-0.528138	-0.0573968	2.0944	0.522016	0	0	1.09589	-0.556107	0.060385	2.0944	0.484969	0	0	-0.994188	0.0272051	0.0208249	1.00344	-0.614847	0.409532	0.892441	0.523711	0	0	0.97896	-0.454881	0.226681	1.0671	0.818401	0	0
65.08	3.01112	1.27089	-1.48235	0.661115	0.225119	0.588115	0.95185	-0.537314	-0.0165018	2.0944	0.523599	0	0	0.970856	-0.572928	-0.00562855	2.0936	0.498731	0	0	-1.07346	-0.0103612	0.0149344	1.03641	-0.589715	0.197191	0.794261	1.44201	0	0	0.991696	-0.449488	0.222862	1.08962	0.82072	0	0
65.09	3.01771	1.25742	-1.48986	0.661283	0.22514	0.583021	0.953131	-0.542134	-0.00554404	2.0944	0.523599	0	0	0.969943	-0.579162	0.00254206	2.0944	0.502295	0	0	-1.08586	-0.0101679	0.0134365	1.02296	-0.613822	0.39529	0.922044	0.526055	0	0	0.986186	-0.449852	0.210845	1.11817	0.810102	0	0
65.1	3.01436	1.24327	-1.48746	0.661668	0.225204	0.578341	0.93695	-0.548713	-0.00672004	2.0944	0.523599	0	0	0.970227	-0.588221	0.0150005	2.0944	0.505165	0	0	-1.09958	-0.00965159	0.0173774	1.02775	-0.615341	0.388981	0.938621	0.525764	0	0	0.984706	-0.44599	0.202485	1.14122	0.807422	0	0
65.11	3.02703	1.24569	-1.50138	0.66089	0.222826	0.579216	0.947498	-0.536009	-0.00628352	2.0944	0.518633	0	0	0.956889	-0.571856	-0.00779853	2.0944	0.500854	0	0	-1.11371	-0.013583	0.018512	1.05155	-0.58935	0.152702	0.846415	1.57072	0	0	0.987307	-0.437786	0.196532	1.16394	0.804443	0	0
65.12	3.03335	1.23681	-1.50822	0.660876	0.221889	0.57673	0.945451	-0.536927	-0.000946975	2.0944	0.517537	0	0	0.950705	-0.572146	-0.00746149	2.0944	0.503056	0	0	-1.12748	-0.0145133	0.0192666	1.05427	-0.590215	0.150206	0.866886	1.57062	0	0	0.985894	-0.433505	0.18645	1.18486	0.805691	0	0
65.13	3.03735	1.22824	-1.51279	0.660847	0.221213	0.573941	0.943598	-0.538646	0.00505896	2.0944	0.517154	0	0	0.945646	-0.573601	-0.0044864	2.0944	0.507801	0	0	-1.13997	-0.0151056	0.0205059	1.05597	-0.591061	0.147851	0.887277	1.56861	0	0	0.983914	-0.428299	0.175585	1.20396	0.808324	0	0
65.14	3.04084	1.21791	-1.51656	0.6608	0.220458	0.571462	0.938944	-0.54065	0.0104131	2.0944	0.516726	0	0	0.938908	-0.574972	-0.00133504	2.0944	0.51213	0	0	-1.15426	-0.0152946	0.0217155	1.05798	-0.591858	0.14474	0.907514	1.56489	0	0	0.982401	-0.422272	0.163504	1.2223	0.817646	0	0
65.15	3.04531	1.19508	-1.52001	0.661681	0.218845	0.569653	0.909189	-0.545358	8.38214e-05	2.0944	0.51588	0	0	0.920677	-0.577736	-0.00162973	2.0944	0.505545	0	0	-1.18278	-0.0163567	0.0229304	1.0656	-0.591972	0.142222	0.929866	1.56058	0	0	0.989222	-0.417436	0.150261	1.24132	0.837545	0	0
65.16	3.04998	1.18583	-1.52425	0.661651	0.217993	0.567332	0.90489	-0.547711	0.00416241	2.0944	0.515581	0	0	0.915816	-0.577928	0.000271674	2.0944	0.504741	0	0	-1.19606	-0.0163813	0.0231039	1.06645	-0.591622	0.13763	0.952282	1.55718	0	0	0.986997	-0.411832	0.134494	1.25826	0.865636	0	0
65.17	3.05385	1.17696	-1.52757	0.661628	0.217118	0.565069	0.900442	-0.549781	0.00756972	2.0944	0.51551	0	0	0.911542	-0.578058	0.00266987	2.0944	0.504076	0	0	-1.20874	-0.0161695	0.0234451	1.06692	-0.59091	0.132406	0.975098	1.5544	0	0	0.984667	-0.405684	0.117229	1.27381	0.898555	0	0
65.18	3.05679	1.16833	-1.53007	0.661616	0.216256	0.562857	0.895963	-0.551323	0.010663	2.0944	0.51555	0	0	0.90756	-0.578315	0.0053548	2.0944	0.503551	0	0	-1.22075	-0.0158921	0.024205	1.06708	-0.590121	0.127576	0.998156	1.5522	0	0	0.982613	-0.398432	0.0988598	1.28746	0.937648	0	0
65.19	3.05876	1.15885	-1.53176	0.661669	0.215359	0.560861	0.890054	-0.5524	0.0131525	2.0944	0.515625	0	0	0.90242	-0.578883	0.00812557	2.0944	0.503144	0	0	-1.2333	-0.0155134	0.0257411	1.06743	-0.589745	0.123852	1.02112	1.55026	0	0	0.981124	-0.390473	0.079441	1.29859	0.990716	0	0
65.2	3.0628	1.13907	-1.53513	0.661659	0.213692	0.560118	0.872468	-0.55489	0.0121633	2.0944	0.514091	0	0	0.885314	-0.579324	0.00680519	2.0944	0.495738	0	0	-1.25908	-0.0153616	0.0261075	1.07683	-0.589987	0.123849	1.04468	1.54783	0	0	0.988429	-0.382228	0.0580804	1.30757	1.06484	0	0
65.21	3.06289	1.14455	-1.53539	0.661908	0.213659	0.556715	0.88484	-0.553698	0.0186864	2.0944	0.515319	0	0	0.897361	-0.57809	0.0134658	2.0944	0.502458	0	0	-1.25341	-0.0147176	0.0279773	1.07021	-0.588815	0.126103	1.06371	1.52905	0	0	0.973024	-0.39148	0.0520188	1.344	0.886876	0	0
65.22	3.06841	1.13228	-1.54031	0.662157	0.21227	0.555041	0.877465	-0.554738	0.022967	2.0944	0.515111	0	0	0.888117	-0.576663	0.0143117	2.0944	0.502225	0	0	-1.2742	-0.018485	0.0141756	1.08052	-0.575582	0.125877	1.08278	1.54497	0	0	0.968039	-0.384306	-0.0216614	1.36334	1.1072	0	0
65.23	3.06657	1.12433	-1.53824	0.662222	0.211436	0.553384	0.871906	-0.553269	0.0237768	2.0944	0.515108	0	0	0.884352	-0.576814	0.01834	2.0944	0.502009	0	0	-1.2836	-0.0178747	0.0185259	1.07927	-0.576083	0.122977	1.10411	1.54244	0	0	0.969428	-0.395884	0.00797845	1.37332	1.04328	0	0
